<?xml version="1.0" encoding="UTF-8"?>
<svg width="20px" height="20px" viewBox="0 0 20 20" version="1.1" xmlns="http://www.w3.org/2000/svg" xmlns:xlink="http://www.w3.org/1999/xlink">
    <!-- Generator: Sketch 47.1 (45422) - http://www.bohemiancoding.com/sketch -->
    <title>Images/fm_aboutus_03</title>
    <desc>Created with Sketch.</desc>
    <defs></defs>
    <g id="Symbols" stroke="none" stroke-width="1" fill="none" fill-rule="evenodd">
        <g id="Images/fm_aboutus_03" fill-rule="nonzero" fill="#25272B">
            <path d="M12.3583678,10.3220152 C8.01401491,7.82035582 4.35985569,7.71129243 1.5,10.2530941 L2.82864231,11.7479886 C5.17643676,9.66130015 8.33749655,9.9840305 12.6095565,12.8325486 L13.9559126,13.73027 L14.156601,12.1245607 C14.6537185,8.14711944 14.6827174,6.98508336 14.3304359,5.29588107 L14.2484133,4.90257934 L13.9170829,4.67534779 C13.2977857,4.25062402 13.1845635,3.92228229 13.3243076,3.62296169 C13.479904,3.28968698 13.9307642,3.00906421 14.3712856,3.00034551 C15.1665124,2.98460656 15.6643212,3.73886422 15.6643212,5.00003763 C15.6643212,5.31244058 15.7183363,5.78228008 15.8376416,6.6094808 C15.877777,6.8877589 16.1227035,8.51956972 16.1963871,9.03117899 C16.3075923,9.80331354 16.3976258,10.4786673 16.4727299,11.1197291 C16.8079655,13.9811818 16.7667486,15.9764112 16.4494649,16.3007662 C15.8810846,16.8818141 10.8297947,16.2083088 2.41471493,14.0318936 L1.91392739,15.9681817 C11.5424502,18.4584331 16.4911604,19.1182611 17.8791774,17.6993091 C18.8454301,16.7115213 18.8898128,14.5630448 18.4591441,10.8870093 C18.3817459,10.2263653 18.2894866,9.53431577 18.1759616,8.74607448 C18.1011578,8.22668686 17.8561916,6.59461163 17.817159,6.32397939 C17.7134681,5.60504125 17.6643212,5.17754659 17.6643212,5.00003763 C17.6643212,2.75642054 16.477543,0.958267261 14.3317098,1.00073711 C13.1438006,1.02424794 11.9971311,1.7379539 11.5120834,2.77688636 C10.984052,3.90788666 11.3273344,5.1374266 12.4421668,6.06523403 C12.6238306,7.10286876 12.6144619,8.049955 12.3583678,10.3220152 Z" id="Path-4" transform="translate(10.109913, 9.717959) scale(-1, 1) translate(-10.109913, -9.717959) "></path>
        </g>
    </g>
</svg>