<?xml version="1.0" encoding="UTF-8"?>
<svg width="20px" height="20px" viewBox="0 0 20 20" version="1.1" xmlns="http://www.w3.org/2000/svg" xmlns:xlink="http://www.w3.org/1999/xlink">
    <!-- Generator: Sketch 47.1 (45422) - http://www.bohemiancoding.com/sketch -->
    <title>Images/fm_aboutus_02</title>
    <desc>Created with Sketch.</desc>
    <defs></defs>
    <g id="Symbols" stroke="none" stroke-width="1" fill="none" fill-rule="evenodd">
        <g id="Images/fm_aboutus_02" fill-rule="nonzero" fill="#25272B">
            <path d="M10.1663454,13.1425888 C6.79867328,13.7107008 4,11.3841518 4,8 C4,4.74795787 6.59339143,1.71707233 9.8336546,1.17045371 C13.2013267,0.602341739 16,2.92889074 16,6.31304251 C16,9.56508464 13.4066086,12.5959702 10.1663454,13.1425888 Z M9.8336546,11.1704537 C12.1162389,10.7853914 14,8.58384788 14,6.31304251 C14,4.17434679 12.3215208,2.77901988 10.1663454,3.1425888 C7.88376107,3.52765108 6,5.72919463 6,8 C6,10.1386957 7.67847922,11.5340226 9.8336546,11.1704537 Z" id="Oval-4"></path>
            <path d="M1.98364823,19.0052591 C3.95056652,16.5733576 6.7278174,14.7721984 9.81571146,14.1932183 C12.9950437,13.5970935 15.8835051,14.4126875 17.9283593,16.1937763 L15.0751835,16.6968682 C13.6806382,16.0375727 12.0014954,15.8182364 10.1842885,16.1589627 C8.43827211,16.4863408 6.8022689,17.2864206 5.40873517,18.4013238 L1.98364823,19.0052591 Z" id="Combined-Shape"></path>
        </g>
    </g>
</svg>