<?xml version="1.0" encoding="UTF-8"?>
<svg width="80px" height="6px" viewBox="0 0 80 6" version="1.1" xmlns="http://www.w3.org/2000/svg" xmlns:xlink="http://www.w3.org/1999/xlink">
    <!-- Generator: Sketch 47.1 (45422) - http://www.bohemiancoding.com/sketch -->
    <title>Images/fm_divider</title>
    <desc>Created with Sketch.</desc>
    <defs></defs>
    <g id="Symbols" stroke="none" stroke-width="1" fill="none" fill-rule="evenodd">
        <g id="Images/fm_divider">
            <path d="M36.9342585,0 L43.0657415,0 L43.0657415,0 C43.3418838,-5.07265313e-17 43.5657415,0.223857625 43.5657415,0.5 C43.5657415,0.598712493 43.5365224,0.695216339 43.4817666,0.777350098 L40.4160251,5.37596228 L40.4160251,5.37596228 C40.2628489,5.60572662 39.9524142,5.66781356 39.7226499,5.51463733 C39.6677238,5.4780199 39.6205923,5.43088842 39.5839749,5.37596228 L36.5182334,0.777350098 L36.5182334,0.777350098 C36.3650572,0.547585754 36.4271441,0.237151082 36.6569084,0.0839748528 C36.7390422,0.0292190137 36.8355461,1.81331907e-17 36.9342585,0 Z" id="Rectangle" fill="#25272B"></path>
            <path d="M50.7201474,1 L55.2798526,1 L55.2798526,1 C55.4869594,1 55.6548526,1.16789322 55.6548526,1.375 C55.6548526,1.45192521 55.6311953,1.52698945 55.5870887,1.59001398 L53.307236,4.8477227 L53.307236,4.8477227 C53.1884871,5.01740448 52.9546678,5.05869371 52.784986,4.93994477 C52.7490946,4.91482676 52.717882,4.88361411 52.692764,4.8477227 L50.4129113,1.59001398 L50.4129113,1.59001398 C50.2941624,1.42033219 50.3354516,1.18651289 50.5051334,1.06776395 C50.5681579,1.0236573 50.6432222,1 50.7201474,1 Z" id="Rectangle" fill="#CBCED4"></path>
            <path d="M24.7201474,1 L29.2798526,1 L29.2798526,1 C29.4869594,1 29.6548526,1.16789322 29.6548526,1.375 C29.6548526,1.45192521 29.6311953,1.52698945 29.5870887,1.59001398 L27.307236,4.8477227 L27.307236,4.8477227 C27.1884871,5.01740448 26.9546678,5.05869371 26.784986,4.93994477 C26.7490946,4.91482676 26.717882,4.88361411 26.692764,4.8477227 L24.4129113,1.59001398 L24.4129113,1.59001398 C24.2941624,1.42033219 24.3354516,1.18651289 24.5051334,1.06776395 C24.5681579,1.0236573 24.6432222,1 24.7201474,1 Z" id="Rectangle" fill="#CBCED4"></path>
            <rect id="Rectangle-2" fill="#CBCED4" x="62" y="2" width="18" height="1"></rect>
            <rect id="Rectangle-2" fill="#CBCED4" x="0" y="2" width="18" height="1"></rect>
        </g>
    </g>
</svg>