<?xml version="1.0" encoding="UTF-8"?>
<svg width="218px" height="88px" viewBox="0 0 218 88" version="1.1" xmlns="http://www.w3.org/2000/svg" xmlns:xlink="http://www.w3.org/1999/xlink">
    <!-- Generator: Sketch 47.1 (45422) - http://www.bohemiancoding.com/sketch -->
    <title>images/fm_empty_fav</title>
    <desc>Created with Sketch.</desc>
    <defs></defs>
    <g id="Symbols" stroke="none" stroke-width="1" fill="none" fill-rule="evenodd">
        <g id="images/fm_empty_fav" fill="#CBCED4">
            <path d="M61.75,30.5 C67.9632034,30.5 73,35.4249773 73,41.5002448 C73,45.8746179 71.2166882,49.2187413 67.3249779,52.5098224 C64.3013584,55.0667899 61.5648333,56.7317154 51.2515544,62.5700055 L49.6087287,63.5 L49.0632606,61.7221383 C48.3321825,59.3393123 46.9311206,57.5234565 43.6552411,54.235424 C43.3867517,53.966192 43.3867517,53.966192 43.1172056,53.6960634 C42.9025855,53.4808418 42.7376597,53.3149368 42.5777674,53.1532031 C38.6409808,49.1710775 37,46.5958733 37,42.9669441 C37,37.0296149 41.3398338,31.9666993 46.75,31.9666993 C49.1718592,31.9666993 51.4475014,32.8370881 53.199734,34.3498377 C55.3023459,31.9458725 58.3984366,30.5 61.75,30.5 Z M65.3625221,50.2911077 C68.6327317,47.5256077 70,44.9616624 70,41.5002448 C70,37.0450487 66.3063492,33.4333986 61.75,33.4333986 C58.7965248,33.4333986 56.1161266,34.962237 54.6407605,37.4043667 L53.4989363,39.2943945 L52.1501564,37.5395748 C50.8814624,35.8889502 48.9011712,34.9000979 46.75,34.9000979 C43.1254962,34.9000979 40,38.546349 40,42.9669441 C40,45.5963845 41.3065472,47.6467593 44.7347326,51.1144263 C44.8911095,51.2726042 45.0532749,51.4357324 45.2651343,51.6481855 C45.5334988,51.9171295 45.5334988,51.9171295 45.8041162,52.1884957 C48.6787393,55.0737832 50.2878719,56.9894276 51.2855375,59.1601908 C60.1324547,54.1391129 62.6960959,52.5460096 65.3625221,50.2911077 Z" id="Combined-Shape" fill-rule="nonzero"></path>
            <path d="M175,46.9015554 C174.255011,46.7777207 173.53764,46.5370562 172.9,46.1795618 C170.948849,47.2734794 168.251151,47.2734794 166.3,46.1795618 C164.348849,47.2734794 161.651151,47.2734794 159.7,46.1795618 C157.748849,47.2734794 155.051151,47.2734794 153.1,46.1795618 C152.46236,46.5370562 151.744989,46.7777207 151,46.9015554 L151,60.2293094 L175,56.2293094 L175,46.9015554 Z M178,46.7747647 L178,57.3729309 C178,58.1795155 177.416868,58.8678792 176.621258,59.0004809 L149.921258,63.4504809 C149.022387,63.6002927 148.172262,62.9930603 148.02245,62.0941893 C148.003754,61.9591784 148.003754,61.9591784 148,61.8229309 L148,46.7747647 C147.046485,46.5287999 146.165005,46.0813834 145.473555,45.4325152 L144.793339,44.7941897 L148.332668,33.1694151 C148.544171,32.4747415 149.184971,32 149.911129,32 L176.088871,32 C176.815029,32 177.455829,32.4747415 177.667332,33.1694151 L181.206661,44.7941897 L180.526445,45.4325152 C179.834995,46.0813834 178.953515,46.5287999 178,46.7747647 Z M150.911287,35 L150.802272,35.358054 C149.653126,39.132375 149.450636,39.7974466 148.259954,43.7081892 C149.460317,44.2156693 151.203646,44.061241 152.073555,43.2449042 L153.1,42.2816712 L154.126445,43.2449042 C155.19931,44.2516986 157.60069,44.2516986 158.673555,43.2449042 L159.7,42.2816712 L160.726445,43.2449042 C161.79931,44.2516986 164.20069,44.2516986 165.273555,43.2449042 L166.3,42.2816712 L167.326445,43.2449042 C168.39931,44.2516986 170.80069,44.2516986 171.873555,43.2449042 L172.9,42.2816712 L173.926445,43.2449042 C174.796354,44.061241 176.539683,44.2156693 177.740046,43.7081892 C176.549364,39.7974466 176.346874,39.1323751 175.197728,35.358054 L150.911287,35 Z" id="Combined-Shape" fill-rule="nonzero"></path>
            <path d="M95.65,29 L122.35,29 C123.26127,29 124,29.7387302 124,30.65 L124,60.1489841 C124,60.9498757 123.424869,61.6351146 122.63611,61.7739891 L95.9361098,66.4749781 C95.0386443,66.6329921 94.1830091,66.0335483 94.024995,65.1360828 C94.0041817,64.9937544 94.0041817,64.9937544 94,64.8499731 L94,30.65 C94,29.7387302 94.7387302,29 95.65,29 Z M97,32 L97,63.2415176 L121,59.0159096 L121,32 L97,32 Z M101.5,38 L116.5,38 L116.5,41 L101.5,41 L101.5,38 Z M101.5,45.5 L110.5,45.5 L110.5,48.5 L101.5,48.5 L101.5,45.5 Z" id="Combined-Shape" fill-rule="nonzero"></path>
            <rect id="Rectangle-7" x="6" y="46" width="16" height="2" rx="1"></rect>
            <rect id="Rectangle-7" x="0" y="54" width="6" height="2" rx="1"></rect>
            <path d="M85,3 L83,3 L83,3 C82.4477153,3 82,3.44771525 82,4 C82,4.55228475 82.4477153,5 83,5 L85,5 L85,7 C85,7.55228475 85.4477153,8 86,8 L86,8 C86.5522847,8 87,7.55228475 87,7 L87,5 L89,5 C89.5522847,5 90,4.55228475 90,4 C90,3.44771525 89.5522847,3 89,3 L87,3 L87,1 L87,1 C87,0.44771525 86.5522847,-4.02207227e-17 86,6.123234e-17 L86,6.123234e-17 L86,6.123234e-17 C85.4477153,1.62685403e-16 85,0.44771525 85,1 L85,3 Z" id="Combined-Shape"></path>
            <rect id="Rectangle-7" x="196" y="46" width="6" height="2" rx="1"></rect>
            <rect id="Rectangle-7" x="196" y="38" width="12" height="2" rx="1"></rect>
            <rect id="Rectangle-7" x="212" y="38" width="6" height="2" rx="1"></rect>
            <path d="M74,12 C75.1045695,12 76,11.1045695 76,10 C76,8.8954305 75.1045695,8 74,8 C72.8954305,8 72,8.8954305 72,10 C72,11.1045695 72.8954305,12 74,12 Z M74,14 C71.790861,14 70,12.209139 70,10 C70,7.790861 71.790861,6 74,6 C76.209139,6 78,7.790861 78,10 C78,12.209139 76.209139,14 74,14 Z" id="Oval-2" fill-rule="nonzero"></path>
            <path d="M119,86 C120.104569,86 121,85.1045695 121,84 C121,82.8954305 120.104569,82 119,82 C117.895431,82 117,82.8954305 117,84 C117,85.1045695 117.895431,86 119,86 Z M119,88 C116.790861,88 115,86.209139 115,84 C115,81.790861 116.790861,80 119,80 C121.209139,80 123,81.790861 123,84 C123,86.209139 121.209139,88 119,88 Z" id="Oval-2" fill-rule="nonzero"></path>
        </g>
    </g>
</svg>