<?xml version="1.0" encoding="UTF-8"?>
<svg width="20px" height="20px" viewBox="0 0 20 20" version="1.1" xmlns="http://www.w3.org/2000/svg" xmlns:xlink="http://www.w3.org/1999/xlink">
    <!-- Generator: Sketch 47.1 (45422) - http://www.bohemiancoding.com/sketch -->
    <title>Images/fm_fav_on</title>
    <desc>Created with Sketch.</desc>
    <defs></defs>
    <g id="Symbols" stroke="none" stroke-width="1" fill="none" fill-rule="evenodd">
        <g id="Images/fm_fav_on" fill-rule="nonzero" fill="#FF6A57">
            <path d="M13.2142857,2.14285714 C16.172954,2.14285714 18.5714286,4.5413317 18.5714286,7.5 C18.5714286,9.63032914 17.7222325,11.2589244 15.8690371,12.861688 C14.4292183,14.1069367 13.1261111,14.9177589 8.21502591,17.7610188 L7.43272797,18.2139281 L7.17298122,17.3481056 C6.82484881,16.1876642 6.15767647,15.3033386 4.59773385,13.7020597 C4.46988177,13.5709431 4.46988177,13.5709431 4.34152649,13.4393899 C4.23932644,13.3345765 4.16079033,13.2537804 4.08465116,13.1750158 C2.20999086,11.235712 1.42857143,9.98158208 1.42857143,8.21428571 C1.42857143,5.32279365 3.49515894,2.85714286 6.07142857,2.85714286 C7.22469485,2.85714286 8.30833401,3.28102408 9.14273047,4.01773637 C10.1439743,2.84700017 11.6183031,2.14285714 13.2142857,2.14285714 Z" id="Combined-Shape"></path>
        </g>
    </g>
</svg>