<?xml version="1.0" encoding="UTF-8"?>
<svg width="16px" height="16px" viewBox="0 0 16 16" version="1.1" xmlns="http://www.w3.org/2000/svg" xmlns:xlink="http://www.w3.org/1999/xlink">
    <!-- Generator: Sketch 46.1 (44463) - http://www.bohemiancoding.com/sketch -->
    <title>Images/fm_goto</title>
    <desc>Created with Sketch.</desc>
    <defs></defs>
    <g id="Symbols" stroke="none" stroke-width="1" fill="none" fill-rule="evenodd">
        <g id="Images/fm_goto" fill="#9DA2AB">
            <path d="M5.17071068,1.17071068 L11.2928932,7.29289322 L11.2928932,7.29289322 C11.6834175,7.68341751 11.6834175,8.31658249 11.2928932,8.70710678 L5.17071068,14.8292893 L5.17071068,14.8292893 C5.13165825,14.8683418 5.06834175,14.8683418 5.02928932,14.8292893 C5.01053568,14.8105357 5,14.7851003 5,14.7585786 L5,13.8284271 L5,13.8284271 C5,13.2979941 5.21071368,12.7892863 5.58578644,12.4142136 L10,8 L5.58578644,3.58578644 L5.58578644,3.58578644 C5.21071368,3.21071368 5,2.70200585 5,2.17157288 L5,1.24142136 L5,1.24142136 C5,1.18619288 5.04477153,1.14142136 5.1,1.14142136 C5.12652165,1.14142136 5.15195704,1.15195704 5.17071068,1.17071068 Z" id="Rectangle-2"></path>
        </g>
    </g>
</svg>