<?xml version="1.0" encoding="UTF-8"?>
<svg width="16px" height="16px" viewBox="0 0 16 16" version="1.1" xmlns="http://www.w3.org/2000/svg" xmlns:xlink="http://www.w3.org/1999/xlink">
    <!-- Generator: Sketch 46.1 (44463) - http://www.bohemiancoding.com/sketch -->
    <title>Images/fm_img</title>
    <desc>Created with Sketch.</desc>
    <defs></defs>
    <g id="Symbols" stroke="none" stroke-width="1" fill="none" fill-rule="evenodd">
        <g id="Images/fm_img" fill-rule="nonzero" fill="#FFFFFF">
            <path d="M13.5,4.5951639 L13.5,3.5 L2.5,3.5 L2.5,10.8837989 C2.71047882,10.3906827 2.8912278,9.97865561 2.98462275,9.79533785 C4.06422835,7.67626304 5.44372539,7.43338223 7.90556819,9.01599546 C8.41150716,9.34124194 8.63092692,9.35842856 8.78939353,9.2390371 C8.99455627,9.08446397 9.19975102,8.72527371 9.51461752,7.97189939 C9.53574859,7.92133954 9.70444746,7.51310055 9.75655763,7.38957645 C10.649174,5.27368161 11.6726564,4.2607678 13.5,4.5951639 Z M13.5,6.13290206 C12.3453754,5.83142939 11.8287514,6.33667301 11.1386101,7.97261237 C11.0891049,8.08996163 10.9217389,8.4949751 10.8986056,8.55032565 C10.4783092,9.55595994 10.188761,10.0628096 9.69201143,10.4370692 C8.96844208,10.9822187 8.0822789,10.9128077 7.09443181,10.2777632 C5.33180959,9.1446489 4.96684386,9.2089065 4.32116237,10.476265 C4.15444801,10.8034958 3.6258912,12.0702693 3.20230182,13.0830037 L13.5,11.244129 L13.5,6.13290206 Z M1.5,2 L14.5,2 C14.7761424,2 15,2.22385763 15,2.5 L15,12.0813763 C15,12.3236125 14.8263593,12.5310073 14.5878953,12.5735901 L1.58789532,14.8950187 C1.31605315,14.9435619 1.05632946,14.7625424 1.00778621,14.4907002 C1.00260555,14.4616885 1,14.4322756 1,14.4028049 L1,2.5 C1,2.22385763 1.22385763,2 1.5,2 Z M6,7 C5.44771525,7 5,6.55228475 5,6 C5,5.44771525 5.44771525,5 6,5 C6.55228475,5 7,5.44771525 7,6 C7,6.55228475 6.55228475,7 6,7 Z" id="Combined-Shape"></path>
        </g>
    </g>
</svg>