<?xml version="1.0" encoding="UTF-8"?>
<svg width="28px" height="28px" viewBox="0 0 28 28" version="1.1" xmlns="http://www.w3.org/2000/svg" xmlns:xlink="http://www.w3.org/1999/xlink">
    <!-- Generator: Sketch 46.1 (44463) - http://www.bohemiancoding.com/sketch -->
    <title>Images/fm_list_call</title>
    <desc>Created with Sketch.</desc>
    <defs></defs>
    <g id="Symbols" stroke="none" stroke-width="1" fill="none" fill-rule="evenodd">
        <g id="Images/fm_list_call" fill-rule="nonzero" fill="#474C54">
            <path d="M15.250797,17.6059022 C14.8603433,17.9960163 14.2276527,17.9960163 13.837199,17.6059022 L10.3883736,14.1600767 C9.997439,13.7694822 9.997439,13.1358425 10.3883736,12.745248 L13.382077,9.75414857 L8.59556896,4.3740109 C8.19327226,3.92182079 7.51122923,3.87394554 7.05846765,4.26168932 L5.03951374,5.99071597 C3.99439763,6.88575057 3.68422078,8.61141091 4.35330283,9.8049356 L4.40216099,9.90470964 C4.42195434,9.95155297 4.5346293,10.1707247 4.67248764,10.4203096 C4.95384121,10.9296848 5.29559623,11.4879305 5.69197079,12.0807201 C6.92633111,13.9267413 8.48112188,15.8053274 10.3345877,17.657181 C12.1881064,19.5090875 14.0647629,21.0603822 15.9055709,22.2895678 C16.4966832,22.6842785 17.0529878,23.0242767 17.5602317,23.3038413 C17.8186635,23.4462745 18.0299377,23.5545219 18.2389032,23.65519 C19.3728852,24.3155945 21.1107678,24.0001204 22.0136616,22.9476605 L23.7441935,20.9304628 C24.1244991,20.4871589 24.0756057,19.7913118 23.6317779,19.3971413 L18.2456594,14.6136449 L15.250797,17.6059022 Z M17.4985067,12.5329504 C17.8728291,12.1589536 18.4737093,12.1412968 18.8693466,12.4926685 L24.9598595,17.9017486 C26.2179876,19.019112 26.3543344,20.959588 25.2621469,22.2326984 L23.531615,24.2498961 C22.0069483,26.0271266 19.2095719,26.5349284 17.3211204,25.4293647 C17.1489594,25.350944 16.894426,25.2205325 16.5948558,25.0554261 C16.0365095,24.7476967 15.4319591,24.3782121 14.7949321,23.9528421 C12.8429868,22.6494455 10.8653427,21.0146717 8.92098958,19.0720098 C6.97651208,17.1292237 5.33807017,15.1495655 4.02940124,13.1924136 C3.60243415,12.5538721 3.23125557,11.9475639 2.92179619,11.3873047 C2.77436329,11.1203855 2.65144035,10.8839067 2.58578632,10.7414922 C1.47941031,8.7186237 1.982573,5.97548633 3.73858401,4.47164328 L5.75753792,2.74261663 C7.03965144,1.6446181 8.96447112,1.77972869 10.0898133,3.04463739 L15.5036026,9.12985259 C15.8557609,9.52568613 15.8380754,10.1274838 15.4632794,10.5019537 L12.510002,13.4526623 L14.543998,15.4848892 L17.4985067,12.5329504 Z" id="Images/wc_phone" transform="translate(14.000031, 14.006088) scale(-1, 1) translate(-14.000031, -14.006088) "></path>
        </g>
    </g>
</svg>