<?xml version="1.0" encoding="UTF-8"?>
<svg width="28px" height="28px" viewBox="0 0 28 28" version="1.1" xmlns="http://www.w3.org/2000/svg" xmlns:xlink="http://www.w3.org/1999/xlink">
    <!-- Generator: Sketch 46.1 (44463) - http://www.bohemiancoding.com/sketch -->
    <title>Images/fm_list_favitem</title>
    <desc>Created with Sketch.</desc>
    <defs></defs>
    <g id="Symbols" stroke="none" stroke-width="1" fill="none" fill-rule="evenodd">
        <g id="Images/fm_list_favitem" fill-rule="nonzero" fill="#474C54">
            <path d="M18.5,3 C22.6421356,3 26,6.35786438 26,10.5 C26,13.4824608 24.8111255,15.7624942 22.2166519,18.0063632 C20.2009056,19.7497113 18.3765555,20.8848625 11.5010363,24.8654263 L10.4058192,25.4994994 L10.0421737,24.2873479 C9.55478833,22.6627299 8.62074706,21.424674 6.43682739,19.1828836 C6.25783447,18.9993203 6.25783447,18.9993203 6.07813709,18.8151459 C5.93505702,18.6684071 5.82510646,18.5552926 5.71851162,18.4450221 C3.0939872,15.7299968 2,13.9742149 2,11.5 C2,7.45191111 4.89322252,4 8.5,4 C10.1145728,4 11.6316676,4.59343371 12.7998227,5.62483092 C14.201564,3.98580024 16.2656244,3 18.5,3 Z M20.9083481,16.4936368 C23.0884878,14.6081106 24,12.860005 24,10.5 C24,7.46243388 21.5375661,5 18.5,5 C16.5310165,5 14.7440844,6.04236663 13.760507,7.70741803 L12.9992909,8.99604462 L12.1001043,7.79960326 C11.2543083,6.67420246 9.9341141,6 8.5,6 C6.08366416,6 4,8.48602498 4,11.5 C4,13.2927604 4.87103146,14.6907121 7.15648838,17.0549779 C7.26073969,17.1628241 7.36884994,17.2740454 7.51008952,17.4188965 C7.68899918,17.6022633 7.68899918,17.6022633 7.8694108,17.7872816 C9.78582622,19.7544794 10.8585813,21.0605715 11.5236916,22.5406044 C17.4216365,19.1172184 19.1307306,18.0310357 20.9083481,16.4936368 Z" id="Combined-Shape"></path>
        </g>
    </g>
</svg>