<?xml version="1.0" encoding="UTF-8"?>
<svg width="28px" height="28px" viewBox="0 0 28 28" version="1.1" xmlns="http://www.w3.org/2000/svg" xmlns:xlink="http://www.w3.org/1999/xlink">
    <!-- Generator: Sketch 46.1 (44463) - http://www.bohemiancoding.com/sketch -->
    <title>Images/fm_list_favbusiness</title>
    <desc>Created with Sketch.</desc>
    <defs></defs>
    <g id="Symbols" stroke="none" stroke-width="1" fill="none" fill-rule="evenodd">
        <g id="Images/fm_list_favbusiness" fill-rule="nonzero" fill="#474C54">
            <path d="M22,13.9343703 C21.5033405,13.8518138 21.0250933,13.6913708 20.6,13.4530412 C19.2992328,14.1823196 17.5007672,14.1823196 16.2,13.4530412 C14.8992328,14.1823196 13.1007672,14.1823196 11.8,13.4530412 C10.4992328,14.1823196 8.70076719,14.1823196 7.4,13.4530412 C6.97490674,13.6913708 6.49665953,13.8518138 6,13.9343703 L6,22.8195396 L22,20.1528729 L22,13.9343703 Z M24,13.8498432 L24,20.9152873 C24,21.4530104 23.6112457,21.9119195 23.0808389,22.0003206 L5.28083889,24.9669873 C4.68159153,25.0668618 4.11484124,24.6620402 4.01496668,24.0627928 C4.00250296,23.9727856 4.00250296,23.9727856 4,23.881954 L4,13.8498432 C3.36432361,13.6858666 2.77667006,13.3875889 2.31570329,12.9550101 L1.8622262,12.5294598 L4.22177867,4.77961006 C4.36278087,4.31649431 4.78998062,4 5.27408579,4 L22.7259142,4 C23.2100194,4 23.6372191,4.31649431 23.7782213,4.77961006 L26.1377738,12.5294598 L25.6842967,12.9550101 C25.2233299,13.3875889 24.6356764,13.6858666 24,13.8498432 Z M5.94085791,6 L5.86818147,6.23870268 C5.10208417,8.7549167 4.96709048,9.19829773 4.17330285,11.8054595 C4.97354468,12.1437795 6.13576402,12.0408273 6.71570329,11.4966028 L7.4,10.8544475 L8.08429671,11.4966028 C8.79954028,12.1677991 10.4004597,12.1677991 11.1157033,11.4966028 L11.8,10.8544475 L12.4842967,11.4966028 C13.1995403,12.1677991 14.8004597,12.1677991 15.5157033,11.4966028 L16.2,10.8544475 L16.8842967,11.4966028 C17.5995403,12.1677991 19.2004597,12.1677991 19.9157033,11.4966028 L20.6,10.8544475 L21.2842967,11.4966028 C21.864236,12.0408273 23.0264553,12.1437795 23.8266972,11.8054595 C23.0329095,9.19829774 22.8979158,8.75491671 22.1318185,6.23870268 L5.94085791,6 Z" id="Combined-Shape"></path>
        </g>
    </g>
</svg>