<?xml version="1.0" encoding="UTF-8"?>
<svg width="28px" height="28px" viewBox="0 0 28 28" version="1.1" xmlns="http://www.w3.org/2000/svg" xmlns:xlink="http://www.w3.org/1999/xlink">
    <!-- Generator: Sketch 46.1 (44463) - http://www.bohemiancoding.com/sketch -->
    <title>Images/fm_list_favpost</title>
    <desc>Created with Sketch.</desc>
    <defs></defs>
    <g id="Symbols" stroke="none" stroke-width="1" fill="none" fill-rule="evenodd">
        <g id="Images/fm_list_favpost" fill-rule="nonzero" fill="#474C54">
            <path d="M5.1,2 L22.9,2 C23.5075132,2 24,2.49248678 24,3.1 L24,22.7659894 C24,23.2999171 23.6165794,23.7567431 23.0907398,23.8493261 L5.29073984,26.9833187 C4.69242952,27.0886614 4.12200605,26.6890322 4.01666334,26.0907219 C4.00278778,25.9958363 4.00278778,25.9958363 4,25.8999821 L4,3.1 C4,2.49248678 4.49248678,2 5.1,2 Z M6,4 L6,24.8276784 L22,22.0106064 L22,4 L6,4 Z M9,8 L19,8 L19,10 L9,10 L9,8 Z M9,13 L15,13 L15,15 L9,15 L9,13 Z" id="Combined-Shape"></path>
        </g>
    </g>
</svg>