<?xml version="1.0" encoding="UTF-8"?>
<svg width="28px" height="28px" viewBox="0 0 28 28" version="1.1" xmlns="http://www.w3.org/2000/svg" xmlns:xlink="http://www.w3.org/1999/xlink">
    <!-- Generator: Sketch 46.1 (44463) - http://www.bohemiancoding.com/sketch -->
    <title>Images/fm_list_locate</title>
    <desc>Created with Sketch.</desc>
    <defs></defs>
    <g id="Symbols" stroke="none" stroke-width="1" fill="none" fill-rule="evenodd">
        <g id="Images/fm_list_locate" fill-rule="nonzero" fill="#474C54">
            <path d="M14.7898959,26.6132824 L14.0581819,27.5556775 L13.2581564,26.6705374 C5.89554897,18.524623 4.01532692,15.6896358 4.00007087,11.4858642 C3.98028179,6.03303055 7.91531822,1.57345265 13.9129715,1.04930271 C19.9517721,0.521556794 24,4.40107398 24,9.84839444 C24,14.0750199 22.2328221,17.0273264 14.7898959,26.6132824 Z M22,9.84839444 C22,5.55421464 18.9360412,2.61794698 14.0870928,3.04170873 C9.1403795,3.47401439 5.98398986,7.05115167 6.00005769,11.478606 C6.01225503,14.8395544 7.6104829,17.380507 13.9422368,24.441379 C20.4416773,16.024253 22,13.2992725 22,9.84839444 Z M10.5,10.9169792 C10.5,9.06195065 11.9775064,7.35894342 13.8354811,7.04904873 C15.8181231,6.71836057 17.5,8.09588381 17.5,10.0830208 C17.5,11.9380494 16.0224936,13.6410566 14.1645189,13.9509513 C12.1818769,14.2816394 10.5,12.9041162 10.5,10.9169792 Z M15.5,10.0830208 C15.5,9.34786092 14.9433006,8.89190228 14.1645189,9.02179658 C13.2610699,9.17248435 12.5,10.0497107 12.5,10.9169792 C12.5,11.6521391 13.0566994,12.1080977 13.8354811,11.9782034 C14.7389301,11.8275157 15.5,10.9502893 15.5,10.0830208 Z" id="Combined-Shape"></path>
        </g>
    </g>
</svg>