<?xml version="1.0" encoding="UTF-8"?>
<svg width="28px" height="28px" viewBox="0 0 28 28" version="1.1" xmlns="http://www.w3.org/2000/svg" xmlns:xlink="http://www.w3.org/1999/xlink">
    <!-- Generator: Sketch 46.1 (44463) - http://www.bohemiancoding.com/sketch -->
    <title>Images/fm_map</title>
    <desc>Created with Sketch.</desc>
    <defs></defs>
    <g id="Symbols" stroke="none" stroke-width="1" fill="none" fill-rule="evenodd">
        <g id="Images/fm_map" fill="#57ABFF">
            <path d="M24.6559693,25 L22.2559693,17 L19,17 L19,15 L22.9255969,15 C23.411366,15 23.8396211,15.318635 23.9792058,15.7839173 L26.9192058,25.5839173 C27.0937735,26.1658095 26.7635717,26.7790413 26.1816796,26.9536089 C26.0258958,26.9921858 26.0258958,26.9921858 25.8655969,27 L2.13440307,27 C1.52688984,27 1.03440307,26.5075132 1.03440307,25.9 C1.0422173,25.7397012 1.0422173,25.7397012 1.08079415,25.5839173 L4.02079415,15.7839173 C4.16037886,15.318635 4.58863402,15 5.07440307,15 L9,15 L9,17 L5.74403065,17 L3.34403065,25 L24.6559693,25 Z M14.7898852,18.6132824 L14.0581712,19.5556775 L13.2581457,18.6705374 C8.28901208,13.1727382 7.01064691,11.2452271 7.00004944,8.32511917 C6.98623652,4.51900018 9.7393686,1.39887481 13.9129608,1.03413413 C18.1371366,0.664972832 21,3.40852588 21,7.23226296 C21,10.1582986 19.80639,12.1523834 14.7898852,18.6132824 Z M19,7.23226296 C19,4.56166654 17.1214057,2.76136302 14.0870821,3.02654016 C10.9644299,3.29943655 8.98994459,5.5371213 9.00003627,8.31786095 C9.00758606,10.3981899 10.0043944,12.0265646 13.9424275,16.439654 C18.015584,11.146478 19,9.38502689 19,7.23226296 Z M11.3333333,7.94465277 C11.3333333,6.54334042 12.4377437,5.27037212 13.8354811,5.03724118 C15.3578858,4.78331676 16.6666667,5.85525969 16.6666667,7.38868056 C16.6666667,8.78999291 15.5622563,10.0629612 14.1645189,10.2960922 C12.6421142,10.5500166 11.3333333,9.47807365 11.3333333,7.94465277 Z M14.6666667,7.38868056 C14.6666667,7.1072368 14.4830634,6.95685848 14.1645189,7.00998903 C13.7213072,7.08391305 13.3333333,7.53110047 13.3333333,7.94465277 C13.3333333,8.22609653 13.5169366,8.37647486 13.8354811,8.32334431 C14.2786928,8.24942028 14.6666667,7.80223286 14.6666667,7.38868056 Z" id="Combined-Shape"></path>
        </g>
    </g>
</svg>