<?xml version="1.0" encoding="UTF-8"?>
<svg width="28px" height="28px" viewBox="0 0 28 28" version="1.1" xmlns="http://www.w3.org/2000/svg" xmlns:xlink="http://www.w3.org/1999/xlink">
    <!-- Generator: Sketch 47.1 (45422) - http://www.bohemiancoding.com/sketch -->
    <title>Images/fm_route</title>
    <desc>Created with Sketch.</desc>
    <defs></defs>
    <g id="Symbols" stroke="none" stroke-width="1" fill="none" fill-rule="evenodd">
        <g id="Images/fm_route" fill="#FFFFFF">
            <polygon id="Rectangle-7" points="8 12 14 2 20 12 16 12 16 26 12 26 12 12"></polygon>
            <path d="M18.1390324,15.453728 L18.0869517,16.5032885 C17.894419,20.3833158 19.1597823,23.7756288 21.9158463,26.7318345 C22.3751839,25.9362385 22.567731,25.602737 22.8639458,25.089678 C21.0352008,23.2096412 20.1260199,20.3165054 20.0882287,16.4635359 L20.0783241,15.453728 L21.0881806,15.453728 L22.2839329,15.453728 L19.0881806,10.3405243 L15.8924282,15.453728 L18.1390324,15.453728 Z M17.0881806,16.453728 L16.1365717,16.453728 L16.0894094,16.4041676 C16.0888627,16.4151858 15.4217864,16.431706 14.0881806,16.453728 L19.0881806,8.45372805 L24.0881806,16.453728 L22.0882306,16.453728 L21.0881806,16.453728 C21.0914317,16.785193 21.1013594,17.1085008 21.1179636,17.4236515 L21.0881806,17.453728 L21.1195698,17.453728 C21.3077642,20.9307749 22.3113559,23.4116024 24.1303448,24.8962105 L22.1303448,28.3603122 C18.8055264,25.2483678 17.1184132,21.6128398 17.0690054,17.453728 C17.0653523,17.1099633 17.0718204,16.7834269 17.0881806,16.453728 Z" id="Rectangle-7" fill-rule="nonzero" transform="translate(19.109263, 18.407020) rotate(60.000000) translate(-19.109263, -18.407020) "></path>
        </g>
    </g>
</svg>